<?xml version="1.0" encoding="utf-8"?><!-- Uploaded to: SVG Repo, www.svgrepo.com, Generator: SVG Repo Mixer Tools -->
<svg fill="#000000" width="800px" height="800px" viewBox="0 0 24 24" xmlns="http://www.w3.org/2000/svg"><path d="M14,12a2,2,0,1,1-2-2A2,2,0,0,1,14,12Zm6-3.142v6.284A3.992,3.992,0,1,1,15.142,20H8.858A3.992,3.992,0,1,1,4,15.142V8.858A3.992,3.992,0,1,1,8.858,4h6.284A3.992,3.992,0,1,1,20,8.858ZM17,5a2,2,0,1,0,2-2A2,2,0,0,0,17,5Zm1,10.142V8.858A4,4,0,0,1,15.142,6H8.858A4,4,0,0,1,6,8.858v6.284A4,4,0,0,1,8.858,18h6.284A4,4,0,0,1,18,15.142ZM5,7A2,2,0,1,0,3,5,2,2,0,0,0,5,7ZM7,19a2,2,0,1,0-2,2A2,2,0,0,0,7,19Zm12-2a2,2,0,1,0,2,2A2,2,0,0,0,19,17Z"/></svg>